<svg xmlns="http://www.w3.org/2000/svg" width="256" height="256" viewBox="0 0 100 100"><rect width="100" height="100" rx="50" fill="#ff5400"></rect><path fill="#fff" d="M32.99 29.90L32.99 70.34L23.75 70.34L23.75 29.90L32.99 29.90ZM76.25 46.22L76.25 66.62Q70.49 70.82 61.73 70.82L61.73 70.82Q52.01 70.82 45.95 65.24Q39.89 59.66 39.89 50.06L39.89 50.06Q39.89 40.58 46.22 34.88Q52.55 29.18 62.27 29.18L62.27 29.18Q69.11 29.18 74.09 31.70L74.09 31.70L74.09 40.94Q68.33 37.64 62.27 37.64L62.27 37.64Q56.57 37.64 53.21 41.03Q49.85 44.42 49.85 50.06L49.85 50.06Q49.85 55.76 53.15 59.12Q56.45 62.48 62.15 62.48L62.15 62.48Q64.73 62.48 67.25 61.70L67.25 61.70L67.25 54.08L60.71 54.08L60.71 46.22L76.25 46.22Z"></path></svg>